<?xml version="1.0" encoding="utf-8" standalone="yes"?>
<!DOCTYPE svg PUBLIC "-//W3C//DTD SVG 1.1//EN" "http://www.w3.org/Graphics/SVG/1.1/DTD/svg11.dtd">
<svg style="fill:none;stroke:none;fill-rule:evenodd;clip-rule:evenodd;stroke-linecap:round;stroke-linejoin:round;stroke-miterlimit:1.5;" version="1.1" xmlns="http://www.w3.org/2000/svg" xmlns:xlink="http://www.w3.org/1999/xlink" width="816" height="636" viewBox="0 0 816 636"><style class="text-font-style fontImports" data-font-family="Roboto">@import url(https://fonts.googleapis.com/css2?family=Roboto:wght@400;700&amp;amp;display=block);</style><g id="items" style="isolation: isolate"><g id="blend" style="mix-blend-mode: normal"><g id="g-root-cp_0a_g-0a_13ymqvy18672tn-fill" data-item-order="-414709" transform="translate(278, 326)"></g><g id="g-root-cp_0b_g-0b_zit8ri18673lw-fill" data-item-order="-414703" transform="translate(302.1839904785156, 350.1519775390625)"></g><g id="g-root-cp_5_g-5_m7cqe6186756t-fill" data-item-order="-414699" transform="translate(488, 410)"></g><g id="g-root-cp_2_g-2_8wip3y18673ly-fill" data-item-order="-414693" transform="translate(242.91201782226562, 290.9100341796875)"></g><g id="g-root-cp_3_g-3_1um68pq18674zr-fill" data-item-order="-414687" transform="translate(362, 242)"></g><g id="g-root-cp_4_g-4_1hbc7fi18673ew-fill" data-item-order="-414681" transform="translate(459.5269775390625, 291.2459716796875)"></g><g id="g-root-cp_1_g-1_13zvp2618674zt-fill" data-item-order="-414675" transform="translate(194, 410)"></g><g id="g-root-tx_security_143mjku186730k-fill" data-item-order="0" transform="translate(572, 242)"><g id="tx_security_143mjku186730k-fill-merged" stroke="none" fill="#f79438" fill-opacity="1"><g><text style="font: 20px &quot;Roboto&quot;, sans-serif; white-space: pre;" font-size="20px" font-family="'Roboto', sans-serif"><tspan x="13.72" y="34" dominant-baseline="ideographic">Security Risks</tspan></text></g></g></g><g id="g-root-tx_3_qqaly618675l3-fill" data-item-order="0" transform="translate(386, 258)"><g id="tx_3_qqaly618675l3-fill-merged" stroke="none" fill="#f4f4f4" fill-opacity="1"><g><text style="font: 30px &quot;Roboto&quot;, sans-serif; white-space: pre;" font-size="30px" font-family="'Roboto', sans-serif"><tspan x="13.57" y="46" dominant-baseline="ideographic">3</tspan></text></g></g></g><g id="g-root-tx_awarenes_1lw5i8u18672tj-fill" data-item-order="0" transform="translate(86, 278)"><g id="tx_awarenes_1lw5i8u18672tj-fill-merged" stroke="none" fill="#f4f4f4" fill-opacity="1"><g><text style="font: 15px &quot;Roboto&quot;, sans-serif; white-space: pre;" font-size="15px" font-family="'Roboto', sans-serif"><tspan x="16.73" y="28" dominant-baseline="ideographic">Awareness of all IT </tspan><tspan x="58.02" y="46" dominant-baseline="ideographic">assets</tspan></text></g></g></g><g id="g-root-tx_identifi_hwj0ym18675e5-fill" data-item-order="0" transform="translate(566, 278)"><g id="tx_identifi_hwj0ym18675e5-fill-merged" stroke="none" fill="#f4f4f4" fill-opacity="1"><g><text style="font: 15px &quot;Roboto&quot;, sans-serif; white-space: pre;" font-size="15px" font-family="'Roboto', sans-serif"><tspan x="24.15" y="28" dominant-baseline="ideographic">Identification and </tspan><tspan x="14.3" y="46" dominant-baseline="ideographic">mitigation of threats</tspan></text></g></g></g><g id="g-root-tx_assetvis_4lozoe18673ta-fill" data-item-order="0" transform="translate(86, 242)"><g id="tx_assetvis_4lozoe18673ta-fill-merged" stroke="none" fill="#1ac3fb" fill-opacity="1"><g><text style="font: 20px &quot;Roboto&quot;, sans-serif; white-space: pre;" font-size="20px" font-family="'Roboto', sans-serif"><tspan x="16.78" y="34" dominant-baseline="ideographic">Asset Visibility</tspan></text></g></g></g><g id="g-root-tx_overallh_hyeg7y18674eh-fill" data-item-order="0" transform="translate(44, 470)"><g id="tx_overallh_hyeg7y18674eh-fill-merged" stroke="none" fill="#f4f4f4" fill-opacity="1"><g><text style="font: 15px &quot;Roboto&quot;, sans-serif; white-space: pre;" font-size="15px" font-family="'Roboto', sans-serif"><tspan x="11.83" y="28" dominant-baseline="ideographic">Overall health of IT </tspan><tspan x="52.02" y="46" dominant-baseline="ideographic">assets</tspan></text></g></g></g><g id="g-root-tx_2_dfgkny1867408-fill" data-item-order="0" transform="translate(266, 308)"><g id="tx_2_dfgkny1867408-fill-merged" stroke="none" fill="#f4f4f4" fill-opacity="1"><g><text style="font: 30px &quot;Roboto&quot;, sans-serif; white-space: pre;" font-size="30px" font-family="'Roboto', sans-serif"><tspan x="13.57" y="46" dominant-baseline="ideographic">2</tspan></text></g></g></g><g id="g-root-tx_4_v6442m18674su-fill" data-item-order="0" transform="translate(504, 308)"><g id="tx_4_v6442m18674su-fill-merged" stroke="none" fill="#f4f4f4" fill-opacity="1"><g><text style="font: 30px &quot;Roboto&quot;, sans-serif; white-space: pre;" font-size="30px" font-family="'Roboto', sans-serif"><tspan x="13.57" y="46" dominant-baseline="ideographic">4</tspan></text></g></g></g><g id="g-root-tx_adherenc_1lsenq618674ss-fill" data-item-order="0" transform="translate(338, 158)"><g id="tx_adherenc_1lsenq618674ss-fill-merged" stroke="none" fill="#f4f4f4" fill-opacity="1"><g><text style="font: 15px &quot;Roboto&quot;, sans-serif; white-space: pre;" font-size="15px" font-family="'Roboto', sans-serif"><tspan x="23.89" y="31" dominant-baseline="ideographic">Adherence to </tspan><tspan x="16.56" y="49" dominant-baseline="ideographic">regulations and </tspan><tspan x="42.41" y="67" dominant-baseline="ideographic">policies</tspan></text></g></g></g><g id="g-root-tx_complian_2r44e18673ez-fill" data-item-order="0" transform="translate(338, 122)"><g id="tx_complian_2r44e18673ez-fill-merged" stroke="none" fill="#4f91fc" fill-opacity="1"><g><text style="font: 20px &quot;Roboto&quot;, sans-serif; white-space: pre;" font-size="20px" font-family="'Roboto', sans-serif"><tspan x="17.04" y="34" dominant-baseline="ideographic">Compliance</tspan></text></g></g></g><g id="g-root-tx_itassetm_144vhr2186756o-fill" data-item-order="0" transform="translate(44, 386)"><g id="tx_itassetm_144vhr2186756o-fill-merged" stroke="none" fill="#43dd93" fill-opacity="1"><g><text style="font: 20px &quot;Roboto&quot;, sans-serif; white-space: pre;" font-size="20px" font-family="'Roboto', sans-serif"><tspan x="37.07" y="34" dominant-baseline="ideographic">IT Asset </tspan><tspan x="15.78" y="58" dominant-baseline="ideographic">Maintenance </tspan><tspan x="48.03" y="82" dominant-baseline="ideographic">Score</tspan></text></g></g></g><g id="g-root-tx_operatio_1upx38e186730i-fill" data-item-order="0" transform="translate(626, 386)"><g id="tx_operatio_1upx38e186730i-fill-merged" stroke="none" fill="#ffe711" fill-opacity="1"><g><text style="font: 20px &quot;Roboto&quot;, sans-serif; white-space: pre;" font-size="20px" font-family="'Roboto', sans-serif"><tspan x="16.28" y="34" dominant-baseline="ideographic">Operational </tspan><tspan x="24.84" y="58" dominant-baseline="ideographic">Efficiency</tspan></text></g></g></g><g id="g-root-tx_itassetm_ddl5em18674zu-fill" data-item-order="0" transform="translate(236, 38)"><g id="tx_itassetm_ddl5em18674zu-fill-merged" stroke="none" fill="#f4f4f4" fill-opacity="1"><g><text style="font: bold 25px &quot;Roboto&quot;, sans-serif; white-space: pre;" font-weight="bold" font-size="25px" font-family="'Roboto', sans-serif"><tspan x="13.85" y="43.5" dominant-baseline="ideographic">IT Asset Maintenance Score</tspan></text></g></g></g><g id="g-root-tx_1_402am18675l5-fill" data-item-order="0" transform="translate(218, 428)"><g id="tx_1_402am18675l5-fill-merged" stroke="none" fill="#f4f4f4" fill-opacity="1"><g><text style="font: 30px &quot;Roboto&quot;, sans-serif; white-space: pre;" font-size="30px" font-family="'Roboto', sans-serif"><tspan x="13.57" y="46" dominant-baseline="ideographic">1</tspan></text></g></g></g><g id="g-root-tx_5_141r4bi1867405-fill" data-item-order="0" transform="translate(554, 428)"><g id="tx_5_141r4bi1867405-fill-merged" stroke="none" fill="#f4f4f4" fill-opacity="1"><g><text style="font: 30px &quot;Roboto&quot;, sans-serif; white-space: pre;" font-size="30px" font-family="'Roboto', sans-serif"><tspan x="13.57" y="46" dominant-baseline="ideographic">5</tspan></text></g></g></g><g id="g-root-tx_smoothan_18itkm618675e3-fill" data-item-order="0" transform="translate(614, 446)"><g id="tx_smoothan_18itkm618675e3-fill-merged" stroke="none" fill="#f4f4f4" fill-opacity="1"><g><text style="font: 15px &quot;Roboto&quot;, sans-serif; white-space: pre;" font-size="15px" font-family="'Roboto', sans-serif"><tspan x="41.52" y="28" dominant-baseline="ideographic">Smooth and </tspan><tspan x="15.81" y="46" dominant-baseline="ideographic">effective operations</tspan></text></g></g></g><g id="g-root-cp_0a_g-0a_13ymqvy18672tn-stroke" data-item-order="-414709" transform="translate(278, 326)"><g id="cp_0a_g-0a_13ymqvy18672tn-stroke" fill="none" stroke-linecap="round" stroke-linejoin="round" stroke-miterlimit="4" stroke="#b7b7b7" stroke-width="2" stroke-opacity="1"><g><path d="M 202 130C 202 169.7645 169.7645 202 130 202C 90.2355 202 58 169.7645 58 130C 58 90.2355 90.2355 58 130 58C 169.7645 58 202 90.2355 202 130ZM 130 190C 163.1371 190 190 163.1371 190 130C 190 96.8629 163.1371 70 130 70C 96.8629 70 70 96.8629 70 130C 70 163.1371 96.8629 190 130 190ZM 250 130C 250 196.2742 196.2742 250 130 250C 63.7258 250 10 196.2742 10 130C 10 63.7258 63.7258 10 130 10C 196.2742 10 250 63.7258 250 130ZM 202 130C 202 169.7645 169.7645 202 130 202C 90.2355 202 58 169.7645 58 130C 58 90.2355 90.2355 58 130 58C 169.7645 58 202 90.2355 202 130ZM 130 190C 163.1371 190 190 163.1371 190 130C 190 96.8629 163.1371 70 130 70C 96.8629 70 70 96.8629 70 130C 70 163.1371 96.8629 190 130 190ZM 225.8713 134.9961C 223.2714 185.6926 181.3422 225.9985 129.9991 225.9985C 78.995 225.9985 37.281 186.2231 34.1836 135.9989"></path></g></g></g><g id="g-root-cp_0b_g-0b_zit8ri18673lw-stroke" data-item-order="-414703" transform="translate(302.1839904785156, 350.1519775390625)"><g id="cp_0b_g-0b_zit8ri18673lw-stroke" fill="none" stroke-linecap="round" stroke-linejoin="round" stroke-miterlimit="4" stroke="#ffffff" stroke-width="2" stroke-opacity="1"><g><path d="M 10 99.8475C 11.3537 77.8959 20.0844 57.9404 33.7435 42.4295M 42.1834 33.9646C 57.6217 20.288 77.4979 11.5085 99.3782 10.0599M 111.2732 10C 133.1904 11.2283 153.1437 19.8088 168.7069 33.315M 177.226 41.6859C 191.0545 57.0665 199.9855 76.9387 201.5643 98.8477"></path></g></g></g><g id="g-root-cp_5_g-5_m7cqe6186756t-stroke" data-item-order="-414699" transform="translate(488, 410)"><g id="cp_5_g-5_m7cqe6186756t-stroke" fill="none" stroke-linecap="round" stroke-linejoin="round" stroke-miterlimit="4" stroke="#ffe711" stroke-width="2" stroke-opacity="1"><g><path d="M 88 10C 107.8823 10 124 26.1177 124 46C 124 65.8823 107.8823 82 88 82C 70.162 82 55.3542 69.0263 52.4977 52L 40 46L 52.4977 40C 55.3542 22.9737 70.162 10 88 10Z"></path></g></g><g id="cp_5_g-5_m7cqe6186756t-stroke" fill="none" stroke-linecap="round" stroke-linejoin="round" stroke-miterlimit="4" stroke="#ffe711" stroke-width="2" stroke-opacity="1"><g><path d="M 10 45C 10 48.313709 12.686292 51 16 51C 19.313709 51 22 48.313709 22 45C 22 41.686292 19.313709 39 16 39C 12.686292 39 10 41.686292 10 45"></path></g></g></g><g id="g-root-cp_2_g-2_8wip3y18673ly-stroke" data-item-order="-414693" transform="translate(242.91201782226562, 290.9100341796875)"><g id="cp_2_g-2_8wip3y18673ly-stroke" fill="none" stroke-linecap="round" stroke-linejoin="round" stroke-miterlimit="4" stroke="#1ac3fb" stroke-width="2" stroke-opacity="1"><g><path d="M 20.544169 71.4558C 6.485269 57.397 6.485269 34.603 20.544169 20.5442C 34.602969 6.4853 57.396969 6.4853 71.455769 20.5442C 84.069169 33.1575 85.366069 52.802 75.346469 66.8612L 79.941069 79.9411L 66.861269 75.3465C 52.801969 85.3661 33.157469 84.0692 20.544169 71.4558Z"></path></g></g><g id="cp_2_g-2_8wip3y18673ly-stroke" fill="none" stroke-linecap="round" stroke-linejoin="round" stroke-miterlimit="4" stroke="#1ac3fb" stroke-width="2" stroke-opacity="1"><g><path d="M 92.610885 92.8199C 94.953985 90.4767 98.752985 90.4767 101.096085 92.8199C 103.439285 95.163 103.439285 98.962 101.096085 101.3051C 98.752985 103.6483 94.953985 103.6483 92.610885 101.3051C 90.267685 98.962 90.267685 95.163 92.610885 92.8199Z"></path></g></g></g><g id="g-root-cp_3_g-3_1um68pq18674zr-stroke" data-item-order="-414687" transform="translate(362, 242)"><g id="cp_3_g-3_1um68pq18674zr-stroke" fill="none" stroke-linecap="round" stroke-linejoin="round" stroke-miterlimit="4" stroke="#4f91fc" stroke-width="2" stroke-opacity="1"><g><path d="M 10 46C 10 26.1177 26.1177 10 46 10C 65.8823 10 82 26.1177 82 46C 82 63.838 69.0263 78.6458 52 81.5023L 46 94L 40 81.5023C 22.9737 78.6458 10 63.838 10 46Z"></path></g></g><g id="cp_3_g-3_1um68pq18674zr-stroke" fill="none" stroke-linecap="round" stroke-linejoin="round" stroke-miterlimit="4" stroke="#4f91fc" stroke-width="2" stroke-opacity="1"><g><path d="M 45.5 111.5C 48.8137 111.5 51.5 114.1863 51.5 117.5C 51.5 120.8137 48.8137 123.5 45.5 123.5C 42.1863 123.5 39.5 120.8137 39.5 117.5C 39.5 114.1863 42.1863 111.5 45.5 111.5Z"></path></g></g></g><g id="g-root-cp_4_g-4_1hbc7fi18673ew-stroke" data-item-order="-414681" transform="translate(459.5269775390625, 291.2459716796875)"><g id="cp_4_g-4_1hbc7fi18673ew-stroke" fill="none" stroke-linecap="round" stroke-linejoin="round" stroke-miterlimit="4" stroke="#f79438" stroke-width="2" stroke-opacity="1"><g><path d="M 41.802013 20.5442C 55.860813 6.4853 78.654812 6.4853 92.713613 20.5442C 106.772513 34.603 106.772513 57.397 92.713613 71.4558C 80.100313 84.0692 60.455813 85.3661 46.396613 75.3465L 33.316713 79.9411L 37.911313 66.8613C 27.891713 52.802 29.188613 33.1575 41.802013 20.5442Z"></path></g></g><g id="cp_4_g-4_1hbc7fi18673ew-stroke" fill="none" stroke-linecap="round" stroke-linejoin="round" stroke-miterlimit="4" stroke="#f79438" stroke-width="2" stroke-opacity="1"><g><path d="M 20.2426 91.773025C 22.5858 94.116125 22.5858 97.915125 20.2426 100.258225C 17.8995 102.601425 14.1005 102.601425 11.7574 100.258225C 9.4142 97.915125 9.4142 94.116125 11.7574 91.773025C 14.1005 89.429825 17.8995 89.429825 20.2426 91.773025Z"></path></g></g></g><g id="g-root-cp_1_g-1_13zvp2618674zt-stroke" data-item-order="-414675" transform="translate(194, 410)"><g id="cp_1_g-1_13zvp2618674zt-stroke" fill="none" stroke-linecap="round" stroke-linejoin="round" stroke-miterlimit="4" stroke="#43dd93" stroke-width="2" stroke-opacity="1"><g><path d="M 46 82C 26.1177 82 10 65.8823 10 46C 10 26.1177 26.1177 10 46 10C 63.838 10 78.6458 22.9737 81.5023 40L 94 46L 81.5023 52C 78.6458 69.0263 63.838 82 46 82Z"></path></g></g><g id="cp_1_g-1_13zvp2618674zt-stroke" fill="none" stroke-linecap="round" stroke-linejoin="round" stroke-miterlimit="4" stroke="#43dd93" stroke-width="2" stroke-opacity="1"><g><path d="M 112 46C 112 49.313709 114.686292 52 118 52C 121.313709 52 124 49.313709 124 46C 124 42.686292 121.313709 40 118 40C 114.686292 40 112 42.686292 112 46"></path></g></g></g><g id="g-root-tx_security_143mjku186730k-stroke" data-item-order="0" transform="translate(572, 242)"></g><g id="g-root-tx_3_qqaly618675l3-stroke" data-item-order="0" transform="translate(386, 258)"></g><g id="g-root-tx_awarenes_1lw5i8u18672tj-stroke" data-item-order="0" transform="translate(86, 278)"></g><g id="g-root-tx_identifi_hwj0ym18675e5-stroke" data-item-order="0" transform="translate(566, 278)"></g><g id="g-root-tx_assetvis_4lozoe18673ta-stroke" data-item-order="0" transform="translate(86, 242)"></g><g id="g-root-tx_overallh_hyeg7y18674eh-stroke" data-item-order="0" transform="translate(44, 470)"></g><g id="g-root-tx_2_dfgkny1867408-stroke" data-item-order="0" transform="translate(266, 308)"></g><g id="g-root-tx_4_v6442m18674su-stroke" data-item-order="0" transform="translate(504, 308)"></g><g id="g-root-tx_adherenc_1lsenq618674ss-stroke" data-item-order="0" transform="translate(338, 158)"></g><g id="g-root-tx_complian_2r44e18673ez-stroke" data-item-order="0" transform="translate(338, 122)"></g><g id="g-root-tx_itassetm_144vhr2186756o-stroke" data-item-order="0" transform="translate(44, 386)"></g><g id="g-root-tx_operatio_1upx38e186730i-stroke" data-item-order="0" transform="translate(626, 386)"></g><g id="g-root-tx_itassetm_ddl5em18674zu-stroke" data-item-order="0" transform="translate(236, 38)"></g><g id="g-root-tx_1_402am18675l5-stroke" data-item-order="0" transform="translate(218, 428)"></g><g id="g-root-tx_5_141r4bi1867405-stroke" data-item-order="0" transform="translate(554, 428)"></g><g id="g-root-tx_smoothan_18itkm618675e3-stroke" data-item-order="0" transform="translate(614, 446)"></g></g></g><path id="w59d4e15enu9w" d="M65.283 12.757a.35.35 0 0 0 .584.157l5.203-5.141-6.183 3.523.396 1.461zm-2.216-11.7a.35.35 0 0 0-.522.305v3.111l3.276-1.868-2.754-1.548zm3.728 2.105l-4.25 2.421v2.445l6.391-3.644-2.141-1.222zm4.708 3.303a.35.35 0 0 0 0-.609l-1.592-.9-7.365 4.199v1.782a.35.35 0 0 0 .523.305l8.435-4.777z M44.542 2.513c0-.433.355-.783.792-.783s.792.35.792.783-.355.783-.792.783-.792-.35-.792-.783zm59.171 0c0-.433.355-.783.792-.783s.792.35.792.783-.355.783-.792.783-.792-.35-.792-.783zm-85.951 7.636h-1.27v-.487c-.276.201-.864.609-1.881.609-1.202 0-2.274-.794-2.137-2.078.118-1.106 1.153-1.584 1.848-1.727l2.17-.345c0-.539-.29-.956-1.064-1.006s-1.21.305-1.571 1.017l-1.124-.605c1.218-2.631 5.029-1.764 5.029.414v4.207zm-1.27-2.86c.006.396-.062 1.112-.819 1.59-.587.37-1.841.299-1.903-.395-.049-.555.461-.791.906-.898l1.816-.297zm72.662 2.86h-1.27v-.487c-.276.201-.864.609-1.881.609-1.202 0-2.274-.794-2.137-2.078.118-1.106 1.153-1.584 1.848-1.727l2.17-.345c0-.539-.29-.956-1.064-1.006s-1.21.305-1.571 1.017l-1.124-.605c1.218-2.631 5.029-1.764 5.029.414v4.207zm-1.27-2.86c.006.396-.062 1.112-.82 1.59-.587.37-1.841.299-1.903-.395-.049-.555.461-.791.906-.898l1.816-.297zM99.096 10.149H97.85v-8.45h1.246v4.895l2.68-2.559h1.738l-2.633 2.535 2.715 3.578h-1.556l-2.077-2.707-.867.844v1.863zm6.053-6.114h-1.255v6.113h1.255V4.035zm-59.2 0h-1.255v6.113h1.255V4.035zm5.584 6.113V1.697h1.255v2.695c.361-.346 1-.485 1.47-.485 1.452 0 2.477 1.082 2.457 2.448v3.792h-1.27v-3.68c0-.408-.214-1.339-1.315-1.339-.968 0-1.342.756-1.342 1.339v3.681h-1.255zm-4.76-4.894V4.039h.621a.45.45 0 0 0 .45-.45v-.855h1.251v1.305h1.309v1.215h-1.309v3.109c0 .293.105.664.648.664.365 0 .531-.035.736-.07v1.137s-.361.113-.857.113c-1.398 0-1.777-1.051-1.777-1.788V5.254h-1.071zM36.528 4.039h-1.394l2.191 6.106h1.125l1.234-3.918 1.238 3.918h1.129l2.188-6.106h-1.383l-1.359 3.93-1.256-3.93h-1.124l-1.242 3.957-1.348-3.957zM26.212 7.141c-.02 1.566 1.187 3.129 3.223 3.129 1.566 0 2.383-.918 2.734-1.719L31.172 8c-.315.399-.801 1.094-1.738 1.094-1.145 0-1.825-.781-1.891-1.52h4.625c.074-.284.148-.995-.03-1.559-.336-1.064-1.221-2.102-2.839-2.102s-3.088 1.152-3.088 3.227zm1.363-.75h3.348c-.055-.43-.566-1.301-1.623-1.301a1.79 1.79 0 0 0-1.725 1.301zm-8.758.75c.038 1.758 1.277 3.133 3.145 3.133 1.074 0 1.723-.477 1.961-.672v.547h1.242V1.703h-1.258v2.888c-.414-.36-1.062-.68-1.93-.68-1.91 0-3.198 1.473-3.16 3.23zm1.309-.08c0 1.119.723 1.978 1.836 1.978a1.88 1.88 0 0 0 1.94-1.904c0-1.371-1.011-1.99-1.972-1.99s-1.805.798-1.805 1.916zm76.683-.028C96.771 5.275 95.532 3.9 93.664 3.9c-1.074 0-1.723.477-1.961.672v-.547h-1.242v8.22h1.258V9.583c.414.36 1.063.68 1.93.68 1.91 0 3.198-1.473 3.16-3.23zm-1.309.08c0-1.119-.723-1.978-1.836-1.978a1.88 1.88 0 0 0-1.94 1.904c0 1.371 1.011 1.99 1.972 1.99S95.5 8.231 95.5 7.113zM106.441 10.173V4.036h1.254v.382c.361-.346 1-.485 1.47-.485 1.452 0 2.477 1.082 2.457 2.448v3.792h-1.27V6.492c0-.408-.214-1.339-1.315-1.339-.969 0-1.342.756-1.342 1.339v3.681h-1.254zm-30.383-.021V1.824h1.084l4.215 5.777V1.824h1.32v8.328h-1.094l-4.207-5.796v5.796h-1.319zM5.24 10.149H4V2.377h1.014l2.664 3.597 2.654-3.592h1.03v7.766h-1.256V4.762L7.678 8.068 5.24 4.742v5.407z" transform="translate(680, 602)" fill="#ababab88" stroke="none"></path></svg>